<?xml version="1.0" encoding="utf-8"?>
<!-- Generator: Adobe Illustrator 24.2.3, SVG Export Plug-In . SVG Version: 6.00 Build 0)  -->
<svg version="1.1" id="Layer_1" xmlns="http://www.w3.org/2000/svg" xmlns:xlink="http://www.w3.org/1999/xlink" x="0px" y="0px"
	 viewBox="0 0 25 25" style="enable-background:new 0 0 25 25;" xml:space="preserve">
<style type="text/css">
	.st0{fill:#AAAAAA;}
</style>
<g>
	<g>
		<g>
			<path class="st0" d="M23.4,6.3C23.2,6.1,23,6,22.8,6.1l-2.2,1.3c-0.2,0.1-0.3,0.4-0.2,0.6c0.1,0.2,0.4,0.3,0.6,0.2l2.2-1.3
				C23.4,6.8,23.5,6.5,23.4,6.3z"/>
		</g>
	</g>
	<g>
		<g>
			<path class="st0" d="M23.2,18.1L21,16.8c-0.2-0.1-0.5-0.1-0.6,0.2c-0.1,0.2-0.1,0.5,0.2,0.6l2.2,1.3c0.2,0.1,0.5,0.1,0.6-0.2
				C23.5,18.5,23.4,18.2,23.2,18.1z"/>
		</g>
	</g>
	<g>
		<g>
			<path class="st0" d="M12.7,21.5c-0.2,0-0.5,0.2-0.5,0.4c0,0,0,0,0,0.1v2.6c0,0.3,0.2,0.5,0.4,0.5s0.5-0.2,0.5-0.4c0,0,0,0,0-0.1
				V22C13.1,21.7,12.9,21.5,12.7,21.5z"/>
		</g>
	</g>
	<g>
		<g>
			<path class="st0" d="M4.7,7.4L2.5,6.1C2.3,6,2,6.1,1.9,6.3S1.8,6.8,2.1,6.9l2.2,1.3c0.2,0.1,0.5,0,0.6-0.2S4.9,7.5,4.7,7.4z"/>
		</g>
	</g>
	<g>
		<g>
			<path class="st0" d="M12.7,0c-0.2,0-0.5,0.2-0.5,0.4c0,0,0,0,0,0.1V3c0,0.2,0.2,0.5,0.5,0.5s0.5-0.2,0.5-0.5V0.5
				C13.1,0.2,12.9,0,12.7,0z"/>
		</g>
	</g>
	<g>
		<g>
			<path class="st0" d="M8.3,4.1L7,1.9C6.9,1.7,6.6,1.6,6.4,1.7C6.2,1.8,6.1,2.1,6.3,2.3l1.3,2.2C7.7,4.7,8,4.8,8.2,4.7
				C8.4,4.6,8.4,4.3,8.3,4.1z"/>
		</g>
	</g>
	<g>
		<g>
			<path class="st0" d="M12.7,8.5L12.7,8.5c-2.3,0-4.1,1.8-4.1,4c0,0.3,0.2,0.5,0.5,0.5c0.2,0,0.5-0.2,0.5-0.5
				c0-1.7,1.4-3.1,3.1-3.1l0,0c0.2,0,0.5-0.2,0.5-0.4C13.1,8.7,12.9,8.5,12.7,8.5z"/>
		</g>
	</g>
	<g>
		<g>
			<path class="st0" d="M25,12.5c0-0.2-0.2-0.4-0.4-0.4H22c-0.2,0-0.5,0.2-0.5,0.4s0.2,0.5,0.4,0.5c0,0,0,0,0.1,0h2.5
				C24.8,12.9,25,12.7,25,12.5z"/>
		</g>
	</g>
	<g>
		<g>
			<path class="st0" d="M3.3,12L3.3,12H0.7c-0.2,0-0.4,0.2-0.4,0.5c0,0.2,0.2,0.4,0.4,0.4h2.5c0.2,0,0.5-0.2,0.5-0.4
				S3.5,12.1,3.3,12z"/>
		</g>
	</g>
	<g>
		<g>
			<path class="st0" d="M12.6,5.8C9,5.8,6,8.8,6,12.5c0,1.8,0.7,3.5,2,4.7c1.2,1.3,2.9,2,4.7,2c3.7,0,6.7-3,6.7-6.7
				C19.3,8.8,16.3,5.8,12.6,5.8z M16.7,16.6c-2.2,2.3-5.9,2.3-8.1,0c-1.1-1.1-1.7-2.6-1.7-4.1s0.6-3,1.7-4.1l0,0
				c2.2-2.3,5.9-2.3,8.1,0S18.9,14.3,16.7,16.6z"/>
		</g>
	</g>
	<g>
		<g>
			<path class="st0" d="M19,22.7L19,22.7l-1.3-2.2c-0.1-0.2-0.4-0.3-0.6-0.2c-0.2,0.1-0.3,0.4-0.2,0.6l1.3,2.2
				c0.1,0.2,0.4,0.3,0.6,0.2C19,23.2,19.1,22.9,19,22.7z"/>
		</g>
	</g>
	<g>
		<g>
			<path class="st0" d="M18.8,1.7c-0.2-0.1-0.5-0.1-0.6,0.2L17,4.1c-0.1,0.2-0.1,0.5,0.2,0.6l0,0l0,0c0.2,0.1,0.5,0.1,0.6-0.2l0,0
				L19,2.3C19.1,2.1,19.1,1.8,18.8,1.7z"/>
		</g>
	</g>
	<g>
		<g>
			<path class="st0" d="M8.2,20.3c-0.2-0.1-0.5-0.1-0.6,0.2l-1.3,2.2c-0.1,0.2-0.1,0.5,0.2,0.6c0.2,0.1,0.5,0.1,0.6-0.2l1.3-2.2
				C8.4,20.7,8.4,20.4,8.2,20.3z"/>
		</g>
	</g>
	<g>
		<g>
			<path class="st0" d="M4.9,17c-0.1-0.2-0.4-0.3-0.6-0.2l-2.2,1.3c-0.2,0.1-0.3,0.4-0.2,0.6s0.4,0.3,0.6,0.2l2.2-1.3
				C4.9,17.5,5,17.2,4.9,17z"/>
		</g>
	</g>
	<g>
		<g>
			<path class="st0" d="M23.4,6.3C23.2,6.1,23,6,22.8,6.1l-2.2,1.3c-0.2,0.1-0.3,0.4-0.2,0.6c0.1,0.2,0.4,0.3,0.6,0.2l2.2-1.3
				C23.4,6.8,23.5,6.5,23.4,6.3z"/>
		</g>
	</g>
	<g>
		<g>
			<path class="st0" d="M23.2,18.1L21,16.8c-0.2-0.1-0.5-0.1-0.6,0.2c-0.1,0.2-0.1,0.5,0.2,0.6l2.2,1.3c0.2,0.1,0.5,0.1,0.6-0.2
				C23.5,18.5,23.4,18.2,23.2,18.1z"/>
		</g>
	</g>
	<g>
		<g>
			<path class="st0" d="M12.7,21.5c-0.2,0-0.5,0.2-0.5,0.4c0,0,0,0,0,0.1v2.6c0,0.3,0.2,0.5,0.4,0.5s0.5-0.2,0.5-0.4c0,0,0,0,0-0.1
				V22C13.1,21.7,12.9,21.5,12.7,21.5z"/>
		</g>
	</g>
	<g>
		<g>
			<path class="st0" d="M4.7,7.4L2.5,6.1C2.3,6,2,6.1,1.9,6.3S1.8,6.8,2.1,6.9l2.2,1.3c0.2,0.1,0.5,0,0.6-0.2S4.9,7.5,4.7,7.4z"/>
		</g>
	</g>
	<g>
		<g>
			<path class="st0" d="M12.7,0c-0.2,0-0.5,0.2-0.5,0.4c0,0,0,0,0,0.1V3c0,0.2,0.2,0.5,0.5,0.5s0.5-0.2,0.5-0.5V0.5
				C13.1,0.2,12.9,0,12.7,0z"/>
		</g>
	</g>
	<g>
		<g>
			<path class="st0" d="M8.3,4.1L7,1.9C6.9,1.7,6.6,1.6,6.4,1.7C6.2,1.8,6.1,2.1,6.3,2.3l1.3,2.2C7.7,4.7,8,4.8,8.2,4.7
				C8.4,4.6,8.4,4.3,8.3,4.1z"/>
		</g>
	</g>
	<g>
		<g>
			<path class="st0" d="M12.7,8.5L12.7,8.5c-2.3,0-4.1,1.8-4.1,4c0,0.3,0.2,0.5,0.5,0.5c0.2,0,0.5-0.2,0.5-0.5
				c0-1.7,1.4-3.1,3.1-3.1l0,0c0.2,0,0.5-0.2,0.5-0.4C13.1,8.7,12.9,8.5,12.7,8.5z"/>
		</g>
	</g>
	<g>
		<g>
			<path class="st0" d="M25,12.5c0-0.2-0.2-0.4-0.4-0.4H22c-0.2,0-0.5,0.2-0.5,0.4s0.2,0.5,0.4,0.5c0,0,0,0,0.1,0h2.5
				C24.8,12.9,25,12.7,25,12.5z"/>
		</g>
	</g>
	<g>
		<g>
			<path class="st0" d="M3.3,12L3.3,12H0.7c-0.2,0-0.4,0.2-0.4,0.5c0,0.2,0.2,0.4,0.4,0.4h2.5c0.2,0,0.5-0.2,0.5-0.4
				S3.5,12.1,3.3,12z"/>
		</g>
	</g>
	<g>
		<g>
			<path class="st0" d="M12.6,5.8C9,5.8,6,8.8,6,12.5c0,1.8,0.7,3.5,2,4.7c1.2,1.3,2.9,2,4.7,2c3.7,0,6.7-3,6.7-6.7
				C19.3,8.8,16.3,5.8,12.6,5.8z M16.7,16.6c-2.2,2.3-5.9,2.3-8.1,0c-1.1-1.1-1.7-2.6-1.7-4.1s0.6-3,1.7-4.1l0,0
				c2.2-2.3,5.9-2.3,8.1,0S18.9,14.3,16.7,16.6z"/>
		</g>
	</g>
	<g>
		<g>
			<path class="st0" d="M19,22.7L19,22.7l-1.3-2.2c-0.1-0.2-0.4-0.3-0.6-0.2c-0.2,0.1-0.3,0.4-0.2,0.6l1.3,2.2
				c0.1,0.2,0.4,0.3,0.6,0.2C19,23.2,19.1,22.9,19,22.7z"/>
		</g>
	</g>
	<g>
		<g>
			<path class="st0" d="M18.8,1.7c-0.2-0.1-0.5-0.1-0.6,0.2L17,4.1c-0.1,0.2-0.1,0.5,0.2,0.6l0,0l0,0c0.2,0.1,0.5,0.1,0.6-0.2l0,0
				L19,2.3C19.1,2.1,19.1,1.8,18.8,1.7z"/>
		</g>
	</g>
	<g>
		<g>
			<path class="st0" d="M8.2,20.3c-0.2-0.1-0.5-0.1-0.6,0.2l-1.3,2.2c-0.1,0.2-0.1,0.5,0.2,0.6c0.2,0.1,0.5,0.1,0.6-0.2l1.3-2.2
				C8.4,20.7,8.4,20.4,8.2,20.3z"/>
		</g>
	</g>
	<g>
		<g>
			<path class="st0" d="M4.9,17c-0.1-0.2-0.4-0.3-0.6-0.2l-2.2,1.3c-0.2,0.1-0.3,0.4-0.2,0.6s0.4,0.3,0.6,0.2l2.2-1.3
				C4.9,17.5,5,17.2,4.9,17z"/>
		</g>
	</g>
</g>
</svg>
