<?xml version="1.0" encoding="utf-8"?>
<!-- Generator: Adobe Illustrator 24.2.3, SVG Export Plug-In . SVG Version: 6.00 Build 0)  -->
<svg version="1.1" id="Capa_1" xmlns="http://www.w3.org/2000/svg" xmlns:xlink="http://www.w3.org/1999/xlink" x="0px" y="0px"
	 viewBox="0 0 577.5 577.5" style="enable-background:new 0 0 577.5 577.5;" xml:space="preserve">
<style type="text/css">
	.st0{fill:#AAAAAA;}
</style>
<g>
	<g>
		<path class="st0" d="M171.3,577.5c35.1,0,68.1-13.7,93-38.5c0.4-0.4,5.2-6.9,5.5-7.3l253.5-343.3c2.7-3.7,2.8-8.6,0.2-12.4
			s-7.2-5.5-11.6-4.3l-79,20.9L536.2,16.1c2.6-4.5,1.6-10.3-2.4-13.6c-4-3.3-9.9-3.3-13.9,0.1l-217,187.6l14.7-39.1
			c1.8-4.7,0-10-4.1-12.7s-9.7-2.2-13.3,1.2L78.3,353.1c-51.3,51.3-51.3,134.7,0,186C103.2,563.9,136.2,577.5,171.3,577.5z
			 M171.3,344.8c55.8,0,101.2,45.4,101.2,101.2c0,55.8-45.4,101.2-101.2,101.2c-55.8,0-101.2-45.4-101.2-101.2
			C70.1,390.2,115.5,344.8,171.3,344.8z"/>
		<path class="st0" d="M110.4,434.2c0-4.3,0.6-8.4,1.6-12.3c4.5-17.8,18.5-31.8,36.3-36.3c3.9-1,8-1.6,12.3-1.6
			c5.9,0,10.7-4.8,10.7-10.7s-4.8-10.7-10.7-10.7c-39.5,0-71.6,32.1-71.6,71.6c0,5.9,4.8,10.7,10.7,10.7S110.4,440.1,110.4,434.2z"
			/>
	</g>
</g>
</svg>
